<?xml version="1.0" encoding="utf-8"?>
<!-- Generator: Adobe Illustrator 18.0.0, SVG Export Plug-In . SVG Version: 6.00 Build 0)  -->
<!DOCTYPE svg PUBLIC "-//W3C//DTD SVG 1.0//EN" "http://www.w3.org/TR/2001/REC-SVG-20010904/DTD/svg10.dtd">
<svg version="1.0" id="Layer_1" xmlns="http://www.w3.org/2000/svg" xmlns:xlink="http://www.w3.org/1999/xlink" x="0px" y="0px"
	 viewBox="0 0 250 250" enable-background="new 0 0 70.9 70.9" xml:space="preserve">
<g opacity="0.1">
	<path fill="#0071BB" d="M24.8,10.5v-0.2h-0.2l-0.2-0.8h-7.3L17,10.2h-0.2v0.2h-0.4v1.2h0.3l0.2,2.5c0,0,0,0,0,0c0,0-0.1,0.1,0,0.1
		l0.3,4c0,0.1,0,0.1,0.1,0.1l0.3,3.5c0,0.2,0.2,0.4,0.4,0.4h5.9c0.2,0,0.4-0.2,0.4-0.4l0.3-3.5c0.1,0,0.1-0.1,0.1-0.1l0.3-4
		c0,0,0-0.1,0-0.1c0,0,0,0,0,0l0.2-2.5h0.3v-1.2H24.8z M23.7,22C23.7,22,23.7,22,23.7,22l-5.9,0c0,0,0,0,0,0l-0.3-3.5h1.1
		c0.6,0.6,1.3,0.9,2.1,0.9c0.8,0,1.6-0.3,2.1-0.9H24L23.7,22z M24.1,18.2h-1.3c0,0-0.1,0-0.1,0.1c-0.5,0.5-1.2,0.8-1.9,0.8
		c-0.7,0-1.4-0.3-1.9-0.8c0,0-0.1-0.1-0.1-0.1h-1.3l-0.3-3.7h1.6c0,0,0.1,0,0.1-0.1c0.5-0.5,1.2-0.8,1.9-0.8c0.7,0,1.4,0.3,1.9,0.8
		c0,0,0.1,0.1,0.1,0.1h1.6L24.1,18.2z M24.4,14.2h-1.5c-0.6-0.6-1.3-0.9-2.1-0.9c-0.8,0-1.6,0.3-2.1,0.9h-1.5L17,11.7h7.6L24.4,14.2
		z M20.8,14c-1.3,0-2.4,1.1-2.4,2.4c0,1.3,1.1,2.4,2.4,2.4c1.3,0,2.4-1.1,2.4-2.4C23.1,15,22.1,14,20.8,14z M20.8,18.4
		c-1.1,0-2-0.9-2-2c0-1.1,0.9-2,2-2s2,0.9,2,2C22.8,17.5,21.9,18.4,20.8,18.4z"/>
	<path fill="#2E736A" d="M47.4,51.6v-1.8c0,0,0,0,0,0c0-0.6-0.1-1.1-0.4-1.4c-0.3-0.3-0.6-0.5-1.1-0.5c-0.8,0-1.2,0.5-1.2,1.3
		c0,0.9,0.3,1.7,0.8,2.2c0.6,0.6,1.3,0.8,1.6,0.8c0,0,0,0,0,0c0,0,0.1,0,0.1,0c0,0,0.1-0.1,0.1-0.1C47.4,51.9,47.4,51.7,47.4,51.6z
		 M45.1,49.1c0-0.6,0.3-0.9,0.8-0.9c0.7,0,1.1,0.5,1.1,1.6v1.8c0,0.1,0,0.1,0,0.2C46.4,51.6,45.1,51,45.1,49.1z M57.1,54.6h-2.3
		c0.9-0.7,1.5-1.8,1.5-3v-4c0-0.1-0.1-0.2-0.2-0.2h-8.8c-0.1,0-0.2,0.1-0.2,0.2v0.2c-0.3-0.2-0.7-0.4-1.1-0.4
		c-0.5,0-0.9,0.1-1.2,0.4c-0.3,0.3-0.5,0.8-0.5,1.4c0,2.1,1.7,3.2,2.9,3.4c0.2,0.8,0.7,1.5,1.3,2h-2.3c-0.2,0-0.4,0.2-0.4,0.4
		c0,0.2,0.2,0.4,0.4,0.4c0,0.2,0.2,0.4,0.4,0.4h10.2c0.2,0,0.4-0.2,0.4-0.4c0.2,0,0.4-0.2,0.4-0.4C57.5,54.8,57.3,54.6,57.1,54.6z
		 M49.1,54.6c-0.8-0.5-1.4-1.3-1.6-2.2c0-0.1-0.1-0.1-0.1-0.1c-1.1-0.1-2.7-1.1-2.7-3.1c0-1,0.4-1.5,1.3-1.5c0.5,0,0.9,0.2,1.1,0.6
		c0,0.1,0.1,0.1,0.2,0.1c0.1,0,0.1-0.1,0.1-0.2v-0.5h1.7c-0.3,0.5-0.2,1.3-0.1,2.1c0.1,0.4,0.2,0.9,0.1,1.3L48.4,51l-0.3,0.4l-0.2,2
		l2.1,0.2l0.2-2L50,51.2l-0.7-0.1c0-0.4-0.1-0.9-0.1-1.3c-0.1-0.8-0.3-1.6,0.1-2h6.6v3.9c0,1.2-0.7,2.4-1.7,3H49.1z"/>
	<path fill="#90278E" d="M42.8,32.7l-0.5-1.5v-1.5c0-0.1-0.1-0.2-0.2-0.2h-6.9c-0.1,0-0.2,0.1-0.2,0.2v1.5l-0.5,1.5c0,0,0,0,0,0.1
		v8.4c0,0.1,0.1,0.2,0.2,0.2h7.8c0.1,0,0.2-0.1,0.2-0.2L42.8,32.7C42.8,32.7,42.8,32.7,42.8,32.7z M35.5,29.9H42v1.1h-6.5V29.9z
		 M35.5,31.4h6.6l0.4,1.1h-7.3L35.5,31.4z M42.5,41h-7.4v-3.1h7.4V41z M42.5,37.5h-7.4v-3.3h7.4V37.5z M42.5,33.8h-7.4v-0.9h7.4
		V33.8z M38.2,37c0.1,0,0.2-0.1,0.2-0.2v-1.6c0-0.1-0.1-0.2-0.2-0.2S38,35,38,35.1v1.6C38,36.9,38.1,37,38.2,37z M35.7,37
		c0.1,0,0.2-0.1,0.2-0.2v-1.3h0l0.4,1.3c0,0.1,0.1,0.1,0.2,0.1c0.1,0,0.2,0,0.2-0.1l0.4-1.3h0v1.3c0,0.1,0.1,0.2,0.2,0.2
		c0.1,0,0.2-0.1,0.2-0.2v-1.6c0-0.2-0.1-0.2-0.3-0.2h-0.1c-0.1,0-0.2,0.1-0.3,0.2l-0.4,1.3h0l-0.4-1.3c0-0.2-0.1-0.2-0.3-0.2h-0.1
		c-0.1,0-0.3,0-0.3,0.2v1.6C35.5,36.9,35.5,37,35.7,37z M40.8,37c0.1,0,0.2-0.1,0.2-0.2v-0.5l0.3-0.3l0.5,0.8C41.9,37,41.9,37,42,37
		c0.1,0,0.2-0.1,0.2-0.2c0-0.1,0-0.1-0.1-0.2l-0.6-0.9l0.5-0.5c0,0,0.1-0.1,0.1-0.2c0-0.1-0.1-0.2-0.2-0.2c-0.1,0-0.1,0-0.2,0.1
		L41,35.8v-0.7c0-0.1-0.1-0.2-0.2-0.2c-0.1,0-0.2,0.1-0.2,0.2v1.6C40.6,36.9,40.7,37,40.8,37z M39.1,37h1c0.1,0,0.2-0.1,0.2-0.2
		c0-0.1-0.1-0.2-0.2-0.2h-0.8v-1.4c0-0.1-0.1-0.2-0.2-0.2c-0.1,0-0.2,0.1-0.2,0.2v1.6C38.9,36.9,39,37,39.1,37z"/>
	<path fill="#2E736A" d="M44.2,16.4c0-0.1-0.1-0.2-0.2-0.2h-0.3c0-1.4-0.4-2.8-1.1-4c-0.8-1.3-1.8-1.9-2.8-1.9
		c-1.1,0-2.1,0.7-2.8,1.9c-0.7,1.1-1.1,2.6-1.1,4h-0.3c-0.1,0-0.2,0.1-0.2,0.2c0,1.4,0.4,2.7,1.3,3.5c0.4,0.4,0.8,0.7,1.4,0.9
		c-0.6,0.5-0.9,1.2-0.9,2c0,0.1,0.1,0.2,0.2,0.2h5c0,0,0,0,0,0c0.1,0,0.2-0.1,0.2-0.2c0,0,0,0,0,0c0-0.8-0.4-1.5-0.9-2
		c0.5-0.2,1-0.5,1.4-0.9C43.8,19,44.2,17.8,44.2,16.4z M37.3,12.4c0.7-1.1,1.6-1.8,2.5-1.8c0.9,0,1.8,0.6,2.5,1.8
		c0.7,1.1,1.1,2.4,1.1,3.8h-7.2C36.2,14.9,36.6,13.5,37.3,12.4z M42.2,22.6h-4.6c0.1-0.7,0.4-1.3,1-1.7c0.4,0.1,0.9,0.2,1.4,0.2
		c0.5,0,0.9-0.1,1.4-0.2C41.7,21.3,42.1,21.9,42.2,22.6z M39.8,20.7c-1.1,0-2.1-0.4-2.9-1.1c-0.7-0.7-1.1-1.8-1.2-3.1h8.1
		c0,1.3-0.4,2.3-1.2,3.1C42,20.3,41,20.7,39.8,20.7z"/>
	<path fill="#03ADC4" d="M15.9,36.5c0.3,0,0.5-0.2,0.5-0.5c0-0.3-0.2-0.5-0.5-0.5c-0.3,0-0.5,0.2-0.5,0.5
		C15.5,36.3,15.7,36.5,15.9,36.5z M13.9,37.9c0.2,0,0.4-0.2,0.4-0.4s-0.2-0.4-0.4-0.4c-0.2,0-0.4,0.2-0.4,0.4S13.7,37.9,13.9,37.9z
		 M14.1,35.6c0.2,0,0.4-0.2,0.4-0.4c0-0.2-0.2-0.4-0.4-0.4c-0.2,0-0.4,0.2-0.4,0.4C13.7,35.4,13.9,35.6,14.1,35.6z M14.9,41.1
		c-0.2,0-0.4,0.2-0.4,0.4c0,0.2,0.2,0.4,0.4,0.4c0.2,0,0.4-0.2,0.4-0.4C15.3,41.3,15.1,41.1,14.9,41.1z M16.9,39.6
		c-0.3,0-0.5,0.2-0.5,0.5c0,0.3,0.2,0.5,0.5,0.5c0.3,0,0.5-0.2,0.5-0.5C17.4,39.8,17.2,39.6,16.9,39.6z M17,37.9
		c0.3-0.5,0.5-1,0.5-1.6c0-1.5-1.3-2.8-2.8-2.8c-0.4,0-0.8,0.1-1.1,0.2c-0.2-0.1-0.4-0.2-0.7-0.2H5c-0.6,0-1.2,0.5-1.2,1.2v7.9
		c0,0.6,0.5,1.2,1.2,1.2h7.9c0.6,0,1.1-0.5,1.2-1.1c0.5,0.3,1,0.5,1.6,0.5c1.5,0,2.8-1.3,2.8-2.8C18.5,39.3,17.9,38.4,17,37.9z
		 M14.7,33.9c1.4,0,2.5,1.1,2.5,2.5c0,0.5-0.2,1-0.5,1.4c-0.3-0.1-0.7-0.2-1-0.2c-0.8,0-1.6,0.4-2.1,0.9c-0.8-0.4-1.3-1.2-1.3-2.2
		C12.3,35,13.4,33.9,14.7,33.9z M13.7,42.6c0,0.4-0.4,0.8-0.8,0.8H5c-0.4,0-0.8-0.4-0.8-0.8v-7.9c0-0.4,0.4-0.8,0.8-0.8h7.9
		c0.1,0,0.2,0,0.3,0.1c-0.8,0.5-1.3,1.4-1.3,2.4c0,1.1,0.6,2,1.5,2.5c-0.3,0.5-0.5,1-0.5,1.6c0,0.8,0.3,1.5,0.8,2V42.6z M15.7,42.8
		c-1.4,0-2.5-1.1-2.5-2.5c0-1.4,1.1-2.5,2.5-2.5c1.4,0,2.5,1.1,2.5,2.5C18.1,41.7,17,42.8,15.7,42.8z M15.1,38.9
		c-0.2,0-0.4,0.2-0.4,0.4c0,0.2,0.2,0.4,0.4,0.4c0.2,0,0.4-0.2,0.4-0.4C15.5,39,15.3,38.9,15.1,38.9z"/>
	<path fill="#2E736A" d="M17,57.3c-0.4-0.6-1-0.9-1.7-0.9c-0.1,0-0.1,0-0.2,0c-0.6,0-1.3,0.2-1.8,0.3c-0.2,0-0.3,0.1-0.5,0.1
		c0.1-0.6,0.3-1.1,0.6-1.5c0.2-0.3,0.5-0.5,0.7-0.7c0.2-0.2,0.4-0.3,0.4-0.5c0-0.1,0-0.2-0.1-0.2c-0.1-0.1-0.2-0.2-0.3-0.2
		c-0.5,0-1.1,0.8-1.3,1.1c-0.2,0.2-0.3,0.5-0.4,0.8c0,0,0,0,0,0c0-0.4-0.1-1.2-0.6-1.7c-0.6-0.6-1.4-0.6-1.8-0.6c-0.1,0-0.1,0-0.1,0
		c-0.1,0-0.2,0.1-0.2,0.2c0,0-0.1,1.2,0.6,1.9c0.5,0.5,1.3,0.6,1.7,0.6c0.1,0.1,0.1,0.1,0.2,0.2c-0.1,0.2-0.1,0.4-0.1,0.6
		c-0.1,0-0.2-0.1-0.4-0.1c-0.5-0.1-1.2-0.3-1.8-0.3c-0.1,0-0.1,0-0.2,0c-0.7,0-1.3,0.3-1.7,0.9c-0.4,0.5-0.6,1.2-0.6,1.9
		c0,1.5,0.2,2.7,0.5,3.7c0.4,1.3,1.1,2.2,2.1,2.7c0.3,0.1,0.6,0.2,1,0.2c0,0,0,0,0,0c0.3,0,0.5,0,0.8,0c0.2,0,0.5,0,0.7,0
		c0.2,0,0.4,0,0.7,0c0.3,0,0.5,0,0.8,0c0.4,0,0.8-0.1,1-0.2c1-0.5,1.7-1.4,2.1-2.7c0.3-1,0.5-2.2,0.5-3.7
		C17.6,58.5,17.4,57.8,17,57.3z M10.6,55.2c-0.4-0.4-0.5-1.1-0.5-1.5c0.3,0,1,0.1,1.5,0.5c0.4,0.4,0.5,1.2,0.5,1.5
		C11.7,55.7,11,55.6,10.6,55.2z M16.8,62.8c-0.4,1.2-1,2-1.9,2.5c-0.2,0.1-0.5,0.2-0.9,0.2c-0.2,0-0.5,0-0.8,0c-0.3,0-0.5,0-0.7,0
		c-0.2,0-0.5,0-0.7,0c-0.3,0-0.5,0-0.8,0h0c-0.4,0-0.7,0-0.9-0.2c-0.9-0.4-1.5-1.2-1.9-2.5c-0.3-0.9-0.4-2.1-0.4-3.6
		c0-1.2,0.7-2.4,2-2.5c0,0,0.1,0,0.2,0c0.6,0,1.2,0.2,1.7,0.3c0.2,0.1,0.4,0.1,0.6,0.1c0,0,0,0,0.1,0c0,0,0,0,0,0c0,0,0.1,0,0.1,0
		c0,0,0,0,0,0c0,0,0.1,0,0.1,0c0,0,0,0,0.1,0c0,0,0,0,0,0c0,0,0,0,0.1,0c0,0,0,0,0,0c0.2,0,0.4-0.1,0.7-0.2c0.5-0.1,1.1-0.3,1.7-0.3
		c0.1,0,0.1,0,0.2,0c1.3,0.1,2,1.3,2,2.5C17.2,60.7,17.1,61.8,16.8,62.8z"/>
	<path fill="#90278E" d="M67.7,61.8c0.4-0.2,0.6-0.6,0.6-1.1c0-0.7-0.5-1.3-1.6-1.7c-0.9-0.3-2-0.5-3.3-0.5c-1.2,0-2.4,0.2-3.3,0.5
		c-1,0.4-1.6,1-1.6,1.7c0,0.4,0.2,0.8,0.6,1.1l0.2,0.1l-0.5,6.4c0,0,0,0.1,0,0.1c0,0,0.1,0.1,0.1,0.1h8.9c0,0,0.1,0,0.1-0.1
		c0,0,0.1-0.1,0-0.1l-0.5-6.4L67.7,61.8z M67.7,68.2h-8.5l0.5-6.3c0-0.1,0-0.1-0.1-0.2l-0.3-0.2C59.1,61.3,59,61,59,60.7
		c0-1.2,2.3-1.9,4.5-1.9c2.2,0,4.5,0.7,4.5,1.9c0,0.3-0.2,0.6-0.4,0.8l-0.3,0.2c-0.1,0-0.1,0.1-0.1,0.2L67.7,68.2z M68.1,62.2
		c0.5-0.3,0.7-0.9,0.7-1.4c0-0.9-0.6-1.6-1.7-2.1c-1-0.4-2.3-0.7-3.7-0.7c-1.4,0-2.7,0.2-3.7,0.7c-1.1,0.5-1.7,1.2-1.7,2.1
		c0,0.6,0.3,1.1,0.7,1.4l-0.5,6.2c0,0.2,0,0.4,0.2,0.5C58.6,69,58.8,69,59,69h9c0.2,0,0.4-0.1,0.5-0.2c0.1-0.1,0.2-0.3,0.2-0.5
		L68.1,62.2z M68.2,68.6c-0.1,0.1-0.1,0.1-0.2,0.1h-9c-0.1,0-0.2,0-0.2-0.1c-0.1-0.1-0.1-0.1-0.1-0.2l0.5-6.3c0-0.1,0-0.1-0.1-0.2
		c-0.4-0.3-0.7-0.7-0.7-1.2c0-1.7,2.6-2.4,5-2.4c2.4,0,5,0.8,5,2.4c0,0.5-0.2,0.9-0.6,1.2c-0.1,0-0.1,0.1-0.1,0.2l0.5,6.3
		C68.3,68.5,68.2,68.5,68.2,68.6z"/>
	<path fill="#0071BB" d="M37.4,47.8H30l-1.5-2.6l-0.4,0.2l1.4,2.4h-0.3c-0.1,0-0.2,0.1-0.2,0.2v1.6c0,0.1,0.1,0.2,0.2,0.2h0.2
		l0.6,8.1c0,0.1,0.1,0.2,0.2,0.2h6.3c0.1,0,0.2-0.1,0.2-0.2l0.6-8.1h0.2c0.1,0,0.2-0.1,0.2-0.2V48C37.6,47.9,37.5,47.8,37.4,47.8z
		 M29.5,49.4v-1.2h0.3l0.7,1.2H29.5z M36.3,57.6h-6l-0.5-7.9h0.9l0.8,1.3c-0.4,0-0.7,0-1.1,0c0,0-0.1,0-0.1,0.1c0,0-0.1,0.1-0.1,0.1
		l0.4,5.9c0,0.1,0.1,0.2,0.2,0.2h5.1c0.1,0,0.2-0.1,0.2-0.2l0.4-5.9c0-0.1-0.1-0.2-0.2-0.2c-0.4,0-1-0.1-1.7-0.1c-0.4,0-0.7,0-1.1,0
		c-0.4,0-0.8,0-1.2,0c-0.1,0-0.2,0-0.3,0l-0.8-1.3h5.7L36.3,57.6z M34.8,57h-3.9l-0.4-5.6c0.3,0,0.7,0,1.1,0L34.8,57z M32.1,51.4
		c0,0,0.1,0,0.1,0c0.4,0,0.8,0,1.2,0c0.4,0,0.8,0,1.1,0c0.7,0,1.1,0,1.5,0L35.7,57h-0.4L32.1,51.4z M37.2,49.4h-6.3l-0.7-1.2h7V49.4
		z"/>
	<path fill="#0071BB" d="M64.7,5.5c-0.1-0.7-0.3-1-1-1c-0.1,0-0.1,0-0.2,0c-0.4,0-1.2,0.4-1.9,0.8c-0.1,0-0.2,0-0.3,0
		c-0.4,0-0.9,0.1-1.5,0.2c-0.4-0.3-1.5-0.4-2.4-0.4c-0.9,0-1.9,0.1-2.4,0.4c-0.6-0.2-1.1-0.2-1.5-0.2c-0.1,0-0.2,0-0.3,0
		c-0.7-0.4-1.5-0.8-1.9-0.8c-0.1,0-0.1,0-0.2,0c-0.6,0-0.9,0.3-1,1c-0.1,1,0.3,2.2,1,3c0.3,1,1.8,2.1,3.1,2.6c0,0,0.1,0.1,0.1,0.1
		c0.6,0.6,2,0.8,3.1,0.8c1.1,0,2.5-0.2,3.1-0.8c0,0,0.1-0.1,0.1-0.1c1.3-0.5,2.7-1.6,3.1-2.6C64.4,7.7,64.8,6.6,64.7,5.5z M51.3,7.9
		c-0.5-0.7-0.7-1.6-0.6-2.4c0-0.6,0.2-0.7,0.6-0.7c0.1,0,0.1,0,0.2,0c0.3,0,1,0.3,1.5,0.6c-0.4,0.3-0.8,0.8-1.1,1.2
		C51.7,6.9,51.4,7.5,51.3,7.9L51.3,7.9z M54.1,8.3c-0.1,0.6-0.2,1.6,0,2.3l0,0c-1.2-0.6-2.3-1.5-2.5-2.2c-0.1-0.2,0.1-0.8,0.5-1.4
		c0.4-0.6,0.9-1.1,1.2-1.2c0,0,0.1,0,0.3,0c0.3,0,0.7,0.1,1.2,0.2l0,0C54.6,6.3,54.3,7.3,54.1,8.3z M60.3,10.9
		c-0.4,0.4-1.5,0.7-2.8,0.7c-1.3,0-2.4-0.3-2.8-0.7c-0.3-0.3-0.4-1.3-0.2-2.6c0.2-1.2,0.6-2.2,0.8-2.4c0.2-0.2,1-0.4,2.2-0.4
		c1.2,0,2,0.2,2.2,0.4c0.2,0.2,0.6,1.2,0.8,2.4C60.7,9.6,60.7,10.6,60.3,10.9z M63.4,8.4c-0.2,0.7-1.3,1.7-2.5,2.2l0,0
		c0.2-0.7,0.1-1.7,0-2.3c-0.2-1-0.5-1.9-0.8-2.4l0,0c0.5-0.1,0.9-0.2,1.2-0.2c0.2,0,0.3,0,0.3,0c0.3,0.1,0.8,0.6,1.2,1.2
		C63.2,7.6,63.5,8.1,63.4,8.4z M63.7,7.9L63.7,7.9c-0.1-0.5-0.4-1-0.6-1.2c-0.3-0.5-0.7-1-1.1-1.2c0.6-0.3,1.2-0.6,1.5-0.6
		c0.1,0,0.1,0,0.2,0c0.4,0,0.6,0.1,0.6,0.7C64.4,6.4,64.2,7.2,63.7,7.9z"/>
	<path fill="#03ADC4" d="M56.5,32.9c-0.4-0.4-1-0.4-1.3,0c-0.4,0.4-0.4,1,0,1.3c0.4,0.4,1,0.4,1.3,0C56.9,33.8,56.9,33.2,56.5,32.9z
		 M55.4,34c-0.3-0.3-0.3-0.7,0-0.9c0.3-0.3,0.7-0.3,0.9,0c0.3,0.3,0.3,0.7,0,0.9C56.1,34.3,55.7,34.3,55.4,34z M59,30.4
		c-1.4-1.4-3.9-1.1-5.7,0.6c-1.7,1.7-2,4.3-0.6,5.7c1.4,1.4,3.9,1.1,5.7-0.6C60.1,34.3,60.4,31.8,59,30.4z M52.9,36.5
		c-1.3-1.3-1-3.6,0.6-5.3c1.6-1.6,4-1.9,5.3-0.6c1.3,1.3,1,3.6-0.6,5.3C56.6,37.5,54.2,37.8,52.9,36.5z M58.1,31.3
		c-1-1-2.8-0.8-4.1,0.4c-1.3,1.3-1.5,3.1-0.4,4.1c1,1,2.8,0.8,4.1-0.4C58.9,34.1,59.1,32.3,58.1,31.3z M53.8,35.6
		c-0.9-0.9-0.7-2.5,0.4-3.7c1.1-1.1,2.8-1.3,3.7-0.4c0.9,0.9,0.7,2.5-0.4,3.7C56.3,36.3,54.7,36.5,53.8,35.6z M66.2,42.8
		c0.4-0.4,0.4-1.1,0-1.5c-0.4-0.4-1.1-0.4-1.5,0c0,0-0.1,0.1-0.1,0.1l-1.5-1.5c0.6-1,0.5-2.4-0.1-4.1c-0.7-1.9-2-4-3.7-5.8
		c-1.5-1.5-4.4-1.2-6.3,0.7c-1.9,1.9-2.2,4.7-0.7,6.3c1.7,1.7,3.8,3.1,5.8,3.7c1.7,0.6,3.1,0.6,4.1,0.1l1.5,1.5c0,0-0.1,0.1-0.1,0.1
		c-0.4,0.4-0.4,1.1,0,1.5c0.4,0.4,1.1,0.4,1.5,0c0.2-0.2,0.3-0.5,0.3-0.8C65.7,43.1,66,43,66.2,42.8z M58.2,40.5
		c-1.9-0.7-4-2-5.6-3.7c-1.4-1.4-1.1-4.1,0.7-5.9c1.8-1.8,4.5-2.1,5.9-0.7c1.7,1.7,3,3.7,3.7,5.6c0.7,1.9,0.6,3.5-0.3,4.3
		C61.7,41.1,60.2,41.2,58.2,40.5z M64.9,43.7c-0.3,0.3-0.8,0.3-1.1,0c-0.3-0.3-0.3-0.8,0-1.1c0.1-0.1,0.1-0.1,0.2-0.1l0.2-0.1
		l-1.7-1.7c0.1-0.1,0.2-0.2,0.3-0.2c0.1-0.1,0.2-0.2,0.2-0.3l1.7,1.7l0.1-0.2c0-0.1,0.1-0.1,0.1-0.2c0.3-0.3,0.8-0.3,1.1,0
		c0.3,0.3,0.3,0.8,0,1.1c-0.2,0.2-0.5,0.3-0.7,0.2l-0.2-0.1l0.1,0.2C65.2,43.2,65.1,43.5,64.9,43.7z"/>
	<g>
		<defs>
			<rect id="SVGID_1_" x="0" y="0" width="70.9" height="70.9"/>
		</defs>
		<clipPath id="SVGID_2_">
			<use xlink:href="#SVGID_1_"  overflow="visible"/>
		</clipPath>
		<g clip-path="url(#SVGID_2_)">
			<g>
				<path fill="#90278E" d="M71,17.8c-1.4,0-2.6,1.1-2.6,2.6c0,1.4,1.1,2.6,2.6,2.6c1.4,0,2.6-1.1,2.6-2.6
					C73.5,19,72.4,17.8,71,17.8z M71,22.6c-1.2,0-2.2-1-2.2-2.2c0-1.2,1-2.2,2.2-2.2c1.2,0,2.2,1,2.2,2.2
					C73.2,21.6,72.2,22.6,71,22.6z M76,18.6c-0.2-2.3-2.1-4.1-4.5-4.1c-2,0-3.7,1.3-4.3,3.2c-0.8,0.1-1.6,0.4-2.2,1
					c-0.2,0.2-0.4,0.4-0.5,0.6c-0.2,0-0.3-0.1-0.5-0.2c-0.1-0.1-0.2-0.1-0.3,0l-2.1,2.1c0,0-0.1,0.1-0.1,0.1c0,0,0,0.1,0.1,0.1
					c0.3,0.3,0.5,0.3,0.7,0.3c0.2,0,0.3,0.1,0.5,0.2c0.2,0.2,0.2,0.3,0.2,0.5c0,0.2,0.1,0.4,0.3,0.7c0.3,0.3,0.5,0.3,0.7,0.3
					c0.2,0,0.3,0.1,0.5,0.2c0.2,0.2,0.2,0.3,0.2,0.5c0,0.2,0.1,0.4,0.3,0.7c0.3,0.3,0.5,0.3,0.7,0.3c0.2,0,0.3,0.1,0.5,0.2
					c0.2,0.2,0.2,0.3,0.2,0.5c0,0.2,0.1,0.4,0.3,0.7c0.3,0.3,0.5,0.3,0.7,0.3c0.2,0,0.3,0.1,0.5,0.2c0,0,0.1,0.1,0.1,0.1
					c0,0,0.1,0,0.1-0.1l1.3-1.3c0.3,0.1,0.7,0.1,1,0.1c1.5,0,2.9-0.8,3.7-2c0.7-0.1,1.4-0.4,2-0.9c0.5-0.6,0.8-1.3,0.8-2.1
					C77.2,20.1,76.8,19.2,76,18.6z M68.3,26.9c-0.2-0.2-0.4-0.2-0.6-0.2c-0.2,0-0.3-0.1-0.5-0.2C67,26.3,67,26.2,67,26
					c0-0.2-0.1-0.4-0.3-0.7C66.4,25,66.2,25,66,25c-0.2,0-0.3-0.1-0.5-0.2c-0.2-0.2-0.2-0.3-0.2-0.5c0-0.2-0.1-0.4-0.3-0.7
					c-0.3-0.3-0.5-0.3-0.7-0.3c-0.2,0-0.3-0.1-0.5-0.2c-0.2-0.2-0.2-0.3-0.2-0.5c0-0.2-0.1-0.4-0.3-0.7c-0.3-0.3-0.5-0.3-0.7-0.3
					c-0.1,0-0.2,0-0.4-0.1l0.5-0.5c0.2,0.2,0.4,0.2,0.6,0.2c0.2,0,0.3,0.1,0.5,0.2c0.2,0.2,0.2,0.3,0.2,0.5c0,0.2,0.1,0.4,0.3,0.7
					c0.3,0.3,0.5,0.3,0.7,0.3c0.2,0,0.3,0.1,0.5,0.2c0.2,0.2,0.2,0.3,0.2,0.5c0,0.2,0.1,0.4,0.3,0.7c0.3,0.3,0.5,0.3,0.7,0.3
					c0.2,0,0.3,0.1,0.5,0.2c0.2,0.2,0.2,0.3,0.2,0.5c0,0.2,0.1,0.4,0.3,0.7c0.3,0.3,0.5,0.3,0.7,0.3c0.1,0,0.2,0,0.4,0.1L68.3,26.9z
					 M69,26.2C68.8,26,68.6,26,68.4,26c-0.2,0-0.3-0.1-0.5-0.2c-0.2-0.2-0.2-0.3-0.2-0.5c0-0.2-0.1-0.4-0.3-0.7
					c-0.3-0.3-0.5-0.3-0.7-0.3c-0.2,0-0.3-0.1-0.5-0.2C66,23.8,66,23.7,66,23.5c0-0.2-0.1-0.4-0.3-0.7c-0.3-0.3-0.5-0.3-0.7-0.3
					c-0.2,0-0.3-0.1-0.5-0.2c-0.2-0.2-0.2-0.3-0.2-0.5c0-0.2-0.1-0.4-0.3-0.7c-0.3-0.3-0.5-0.3-0.7-0.3c-0.1,0-0.2,0-0.4-0.1
					l0.5-0.5c0.2,0.2,0.4,0.2,0.6,0.2c0.2,0,0.3,0.1,0.5,0.2c0.2,0.2,0.2,0.3,0.2,0.5c0,0.2,0.1,0.4,0.3,0.7
					c0.3,0.3,0.5,0.3,0.7,0.3c0.2,0,0.3,0.1,0.5,0.2c0.2,0.2,0.2,0.3,0.2,0.5c0,0.2,0.1,0.4,0.3,0.7c0.3,0.3,0.5,0.3,0.7,0.3
					c0.2,0,0.3,0.1,0.5,0.2c0.2,0.2,0.2,0.3,0.2,0.5c0,0.2,0.1,0.4,0.3,0.7c0.3,0.3,0.5,0.3,0.7,0.3c0.1,0,0.2,0,0.4,0.1L69,26.2z
					 M69.2,25.2c-0.2,0-0.3-0.1-0.5-0.2c-0.2-0.2-0.2-0.3-0.2-0.5c0-0.2-0.1-0.4-0.3-0.7c-0.3-0.3-0.5-0.3-0.7-0.3
					c-0.2,0-0.3-0.1-0.5-0.2c-0.2-0.2-0.2-0.3-0.2-0.5c0-0.2-0.1-0.4-0.3-0.7c-0.3-0.3-0.5-0.3-0.7-0.3c-0.2,0-0.3-0.1-0.5-0.2
					C65,21.3,65,21.2,64.9,21c0-0.2-0.1-0.4-0.3-0.7c-0.3-0.3-0.5-0.3-0.7-0.3c-0.1,0-0.2,0-0.4-0.1l0.4-0.4
					c0.2,0.2,0.4,0.2,0.6,0.2c0.2,0,0.3,0.1,0.5,0.2c0.2,0.2,0.2,0.3,0.2,0.5c0,0.2,0.1,0.4,0.3,0.7c0.3,0.3,0.5,0.3,0.7,0.3
					c0.2,0,0.3,0.1,0.5,0.2C67,21.8,67,22,67,22.2c0,0.2,0.1,0.4,0.3,0.7c0.3,0.3,0.5,0.3,0.7,0.3c0.2,0,0.3,0.1,0.5,0.2
					c0.2,0.2,0.2,0.3,0.2,0.5c0,0.2,0.1,0.4,0.3,0.7c0.3,0.3,0.5,0.3,0.7,0.3c0.1,0,0.2,0,0.4,0.1l-0.4,0.4
					C69.5,25.3,69.3,25.3,69.2,25.2z M74.3,23.8c-0.1,0-0.1,0-0.1,0.1c-0.8,1.2-2.1,1.9-3.5,1.9c-0.2,0-0.5,0-0.7-0.1l0.6-0.6
					c0.1-0.1,0.1-0.2,0-0.3c-0.3-0.3-0.5-0.3-0.7-0.3c-0.2,0-0.3-0.1-0.5-0.2c-0.2-0.2-0.2-0.3-0.2-0.5c0-0.2-0.1-0.4-0.3-0.7
					c-0.3-0.3-0.5-0.3-0.7-0.3c-0.2,0-0.3-0.1-0.5-0.2c-0.2-0.2-0.2-0.3-0.2-0.5c0-0.2-0.1-0.4-0.3-0.7c-0.3-0.3-0.5-0.3-0.7-0.3
					c-0.2,0-0.3-0.1-0.5-0.2c-0.2-0.2-0.2-0.3-0.2-0.5c0-0.2-0.1-0.4-0.3-0.7c-0.1-0.1-0.3-0.2-0.4-0.3c0.5-0.8,1.4-1.4,2.5-1.4
					c0.1,0,0.1-0.1,0.2-0.1c0.5-1.8,2.1-3,4-3c2.2,0,4,1.7,4.1,3.9c0,0.1,0,0.1,0.1,0.1c0.7,0.5,1.2,1.3,1.2,2.2
					C76.9,22.5,75.7,23.7,74.3,23.8z"/>
				<path fill="#90278E" d="M0.1,17.8c-1.4,0-2.6,1.1-2.6,2.6c0,1.4,1.1,2.6,2.6,2.6s2.6-1.1,2.6-2.6C2.7,19,1.5,17.8,0.1,17.8z
					 M0.1,22.6c-1.2,0-2.2-1-2.2-2.2c0-1.2,1-2.2,2.2-2.2c1.2,0,2.2,1,2.2,2.2C2.3,21.6,1.3,22.6,0.1,22.6z M5.1,18.6
					c-0.2-2.3-2.1-4.1-4.5-4.1c-2,0-3.7,1.3-4.3,3.2c-0.8,0.1-1.6,0.4-2.2,1c-0.2,0.2-0.4,0.4-0.5,0.6c-0.2,0-0.3-0.1-0.5-0.2
					C-6.8,19-7,19-7,19.1l-2.1,2.1c0,0-0.1,0.1-0.1,0.1c0,0,0,0.1,0.1,0.1c0.3,0.3,0.5,0.3,0.7,0.3c0.2,0,0.3,0.1,0.5,0.2
					c0.2,0.2,0.2,0.3,0.2,0.5c0,0.2,0.1,0.4,0.3,0.7c0.3,0.3,0.5,0.3,0.7,0.3c0.2,0,0.3,0.1,0.5,0.2C-6,24-6,24.1-6,24.3
					c0,0.2,0.1,0.4,0.3,0.7c0.3,0.3,0.5,0.3,0.7,0.3c0.2,0,0.3,0.1,0.5,0.2c0.2,0.2,0.2,0.3,0.2,0.5c0,0.2,0.1,0.4,0.3,0.7
					c0.3,0.3,0.5,0.3,0.7,0.3c0.2,0,0.3,0.1,0.5,0.2c0,0,0.1,0.1,0.1,0.1c0,0,0.1,0,0.1-0.1l1.3-1.3c0.3,0.1,0.7,0.1,1,0.1
					c1.5,0,2.9-0.8,3.7-2c0.7-0.1,1.4-0.4,2-0.9c0.5-0.6,0.8-1.3,0.8-2.1C6.4,20.1,5.9,19.2,5.1,18.6z M-2.6,26.9
					c-0.2-0.2-0.4-0.2-0.6-0.2c-0.2,0-0.3-0.1-0.5-0.2c-0.2-0.2-0.2-0.3-0.2-0.5c0-0.2-0.1-0.4-0.3-0.7C-4.5,25-4.7,25-4.9,25
					c-0.2,0-0.3-0.1-0.5-0.2c-0.2-0.2-0.2-0.3-0.2-0.5c0-0.2-0.1-0.4-0.3-0.7c-0.3-0.3-0.5-0.3-0.7-0.3c-0.2,0-0.3-0.1-0.5-0.2
					c-0.2-0.2-0.2-0.3-0.2-0.5c0-0.2-0.1-0.4-0.3-0.7c-0.3-0.3-0.5-0.3-0.7-0.3c-0.1,0-0.2,0-0.4-0.1l0.5-0.5
					c0.2,0.2,0.4,0.2,0.6,0.2c0.2,0,0.3,0.1,0.5,0.2c0.2,0.2,0.2,0.3,0.2,0.5c0,0.2,0.1,0.4,0.3,0.7c0.3,0.3,0.5,0.3,0.7,0.3
					c0.2,0,0.3,0.1,0.5,0.2c0.2,0.2,0.2,0.3,0.2,0.5c0,0.2,0.1,0.4,0.3,0.7c0.3,0.3,0.5,0.3,0.7,0.3c0.2,0,0.3,0.1,0.5,0.2
					c0.2,0.2,0.2,0.3,0.2,0.5c0,0.2,0.1,0.4,0.3,0.7c0.3,0.3,0.5,0.3,0.7,0.3c0.1,0,0.2,0,0.4,0.1L-2.6,26.9z M-1.9,26.2
					C-2.1,26-2.3,26-2.4,26c-0.2,0-0.3-0.1-0.5-0.2c-0.2-0.2-0.2-0.3-0.2-0.5c0-0.2-0.1-0.4-0.3-0.7c-0.3-0.3-0.5-0.3-0.7-0.3
					c-0.2,0-0.3-0.1-0.5-0.2c-0.2-0.2-0.2-0.3-0.2-0.5c0-0.2-0.1-0.4-0.3-0.7c-0.3-0.3-0.5-0.3-0.7-0.3c-0.2,0-0.3-0.1-0.5-0.2
					c-0.2-0.2-0.2-0.3-0.2-0.5c0-0.2-0.1-0.4-0.3-0.7c-0.3-0.3-0.5-0.3-0.7-0.3c-0.1,0-0.2,0-0.4-0.1l0.5-0.5
					c0.2,0.2,0.4,0.2,0.6,0.2c0.2,0,0.3,0.1,0.5,0.2c0.2,0.2,0.2,0.3,0.2,0.5c0,0.2,0.1,0.4,0.3,0.7c0.3,0.3,0.5,0.3,0.7,0.3
					c0.2,0,0.3,0.1,0.5,0.2c0.2,0.2,0.2,0.3,0.2,0.5c0,0.2,0.1,0.4,0.3,0.7c0.3,0.3,0.5,0.3,0.7,0.3c0.2,0,0.3,0.1,0.5,0.2
					c0.2,0.2,0.2,0.3,0.2,0.5c0,0.2,0.1,0.4,0.3,0.7c0.3,0.3,0.5,0.3,0.7,0.3c0.1,0,0.2,0,0.4,0.1L-1.9,26.2z M-1.7,25.2
					c-0.2,0-0.3-0.1-0.5-0.2c-0.2-0.2-0.2-0.3-0.2-0.5c0-0.2-0.1-0.4-0.3-0.7c-0.3-0.3-0.5-0.3-0.7-0.3c-0.2,0-0.3-0.1-0.5-0.2
					c-0.2-0.2-0.2-0.3-0.2-0.5c0-0.2-0.1-0.4-0.3-0.7c-0.3-0.3-0.5-0.3-0.7-0.3c-0.2,0-0.3-0.1-0.5-0.2c-0.2-0.2-0.2-0.3-0.2-0.5
					c0-0.2-0.1-0.4-0.3-0.7C-6.5,20.1-6.8,20-7,20c-0.1,0-0.2,0-0.4-0.1l0.4-0.4c0.2,0.2,0.4,0.2,0.6,0.2c0.2,0,0.3,0.1,0.5,0.2
					c0.2,0.2,0.2,0.3,0.2,0.5c0,0.2,0.1,0.4,0.3,0.7c0.3,0.3,0.5,0.3,0.7,0.3c0.2,0,0.3,0.1,0.5,0.2c0.2,0.2,0.2,0.3,0.2,0.5
					c0,0.2,0.1,0.4,0.3,0.7c0.3,0.3,0.5,0.3,0.7,0.3c0.2,0,0.3,0.1,0.5,0.2c0.2,0.2,0.2,0.3,0.2,0.5c0,0.2,0.1,0.4,0.3,0.7
					c0.3,0.3,0.5,0.3,0.7,0.3c0.1,0,0.2,0,0.4,0.1l-0.4,0.4C-1.4,25.3-1.5,25.3-1.7,25.2z M3.4,23.8c-0.1,0-0.1,0-0.1,0.1
					c-0.8,1.2-2.1,1.9-3.5,1.9c-0.2,0-0.5,0-0.7-0.1l0.6-0.6c0.1-0.1,0.1-0.2,0-0.3c-0.3-0.3-0.5-0.3-0.7-0.3
					c-0.2,0-0.3-0.1-0.5-0.2c-0.2-0.2-0.2-0.3-0.2-0.5c0-0.2-0.1-0.4-0.3-0.7s-0.5-0.3-0.7-0.3c-0.2,0-0.3-0.1-0.5-0.2
					c-0.2-0.2-0.2-0.3-0.2-0.5c0-0.2-0.1-0.4-0.3-0.7c-0.3-0.3-0.5-0.3-0.7-0.3C-4.7,21-4.9,21-5,20.8c-0.2-0.2-0.2-0.3-0.2-0.5
					c0-0.2-0.1-0.4-0.3-0.7c-0.1-0.1-0.3-0.2-0.4-0.3c0.5-0.8,1.4-1.4,2.5-1.4c0.1,0,0.1-0.1,0.2-0.1c0.5-1.8,2.1-3,4-3
					c2.2,0,4,1.7,4.1,3.9c0,0.1,0,0.1,0.1,0.1C5.6,19.4,6,20.2,6,21.1C6,22.5,4.9,23.7,3.4,23.8z"/>
			</g>
			<g>
				<path fill="#03ADC4" d="M27.1-0.8c-0.3,0-0.9,0.6-0.8,0.9c0.2,0.4,1.1,0.6,1.3,0.2C27.9,0,27.4-0.8,27.1-0.8z M26,1.5
					c-0.3-0.1-0.8,0.3-0.8,0.6c0.1,0.3,0.8,0.4,0.9,0.3C26.3,2.3,26.3,1.6,26,1.5z M24.9-1.2c-0.3-0.1-0.7,0.5-0.6,0.7
					c0.1,0.2,0.7,0.4,0.9,0.2C25.4-0.5,25.2-1.1,24.9-1.2z M29.1,2.6c-0.2-0.1-0.8-0.1-0.9,0.2c-0.1,0.3,0.4,0.8,0.7,0.7
					C29.2,3.5,29.2,2.8,29.1,2.6z M26.5-2.7c0.4,0.1,1.1-0.4,1-0.8c-0.1-0.4-1-0.6-1.2-0.3C26.1-3.7,26.1-2.9,26.5-2.7z M30.9-0.4
					c-0.3,0.3-0.1,1.2,0.3,1.3c0.4,0.1,0.9-0.7,0.8-1C31.9-0.4,31.2-0.7,30.9-0.4z M29.3,0.4c-0.3,0-0.7,0.6-0.6,0.8
					c0.1,0.2,0.7,0.4,0.9,0.2C29.8,1.1,29.6,0.5,29.3,0.4z M30.9-3.2c-0.1-0.3-0.7-0.5-0.9-0.3c-0.2,0.2-0.2,0.8,0.1,0.9
					C30.4-2.5,31-2.9,30.9-3.2z M32.9-0.7c0-0.4-0.1-0.7-0.3-1c0-0.1,0-0.1,0-0.2c0-0.3-0.2-0.6-0.5-0.8c-0.1-0.4-0.4-0.8-0.8-1
					c-0.3-0.6-0.9-1-1.6-1c0,0-0.1,0-0.1,0c-0.3-0.3-0.6-0.5-1-0.5c-0.2,0-0.4,0.1-0.6,0.1c-0.2-0.1-0.4-0.1-0.7-0.1
					c-0.4,0-0.9,0.1-1.2,0.4c0,0-0.1,0-0.1,0c-0.7,0-1.3,0.5-1.4,1.2c-0.6,0.3-0.9,0.9-0.9,1.6c0,0.1,0,0.2,0,0.2
					c-0.3,0.3-0.4,0.6-0.4,1c0,0.2,0.1,0.5,0.2,0.7c-0.1,0.2-0.1,0.4-0.1,0.6c0,0.5,0.2,0.9,0.5,1.2c0,0,0,0,0,0.1
					c0,0.4,0.3,0.8,0.7,0.9c0.2,0.5,0.5,0.8,1,0.9C25.9,4,26.4,4.3,27,4.3c0,0,0.1,0,0.1,0c0.2,0.2,0.4,0.2,0.6,0.2
					c0.1,0,0.3,0,0.4-0.1c0.2,0.1,0.4,0.1,0.6,0.1c0.4,0,0.7-0.2,1-0.4c0.8,0,1.5-0.5,1.7-1.2c0.6-0.2,1-0.8,1.1-1.4
					c0.2-0.2,0.3-0.6,0.3-0.9c0-0.2,0-0.4-0.1-0.5C32.8-0.2,32.9-0.5,32.9-0.7z M32.4-0.1c0,0.1,0,0.1,0,0.2
					c0.1,0.1,0.1,0.3,0.1,0.5c0,0.3-0.1,0.5-0.3,0.7c0,0,0,0.1,0,0.1c0,0.5-0.4,1-0.9,1.2c0,0-0.1,0.1-0.1,0.1
					c-0.2,0.6-0.8,1.1-1.5,1.1c-0.1,0-0.1,0-0.1,0.1C29.3,4,29,4.2,28.7,4.2c-0.2,0-0.3,0-0.5-0.1c0,0-0.1,0-0.1,0c0,0-0.1,0-0.1,0
					c-0.1,0.1-0.2,0.1-0.3,0.1c-0.2,0-0.3-0.1-0.4-0.2c0,0-0.1-0.1-0.2-0.1c-0.1,0-0.1,0-0.2,0c-0.4,0-0.9-0.2-1.1-0.6
					c0,0-0.1-0.1-0.1-0.1c-0.4-0.1-0.7-0.4-0.8-0.8c0-0.1-0.1-0.1-0.1-0.1c-0.3,0-0.5-0.3-0.5-0.6c0,0,0-0.1,0-0.1
					c0-0.1,0-0.1-0.1-0.2c-0.3-0.3-0.5-0.6-0.5-1c0-0.2,0-0.4,0.1-0.5c0-0.1,0-0.1,0-0.2c-0.1-0.2-0.2-0.4-0.2-0.6
					c0-0.3,0.1-0.6,0.4-0.8c0.1,0,0.1-0.1,0.1-0.2c0-0.1,0-0.2,0-0.3c0-0.5,0.3-1,0.8-1.3c0.1,0,0.1-0.1,0.1-0.1c0-0.5,0.5-1,1-1
					c0,0,0.1,0,0.1,0c0,0,0.1,0,0.1,0c0.3-0.2,0.7-0.4,1.1-0.4c0.2,0,0.4,0,0.6,0.1c0.1,0,0.1,0,0.2,0c0.2-0.1,0.3-0.1,0.5-0.1
					c0.3,0,0.6,0.1,0.8,0.4c0,0,0.1,0.1,0.2,0.1C30.2-4.4,30.8-4,31-3.5c0,0,0.1,0.1,0.1,0.1c0.4,0.1,0.6,0.5,0.7,0.8
					c0,0.1,0,0.1,0.1,0.1c0.2,0.1,0.3,0.3,0.3,0.5c0,0.1,0,0.1,0,0.2c0,0.1,0,0.1,0,0.2c0.2,0.2,0.3,0.5,0.3,0.8
					C32.5-0.5,32.5-0.3,32.4-0.1z M29.2-1.9c-0.3,0.1-0.3,0.8-0.1,0.9c0.2,0.1,0.8,0,0.8-0.3C30-1.6,29.4-2.1,29.2-1.9z"/>
				<path fill="#03ADC4" d="M27.1,70.1c-0.3,0-0.9,0.6-0.8,0.9c0.2,0.4,1.1,0.6,1.3,0.2C27.9,70.9,27.4,70.1,27.1,70.1z M26,72.4
					c-0.3-0.1-0.8,0.3-0.8,0.6c0.1,0.3,0.8,0.4,0.9,0.3C26.3,73.1,26.3,72.5,26,72.4z M24.9,69.7c-0.3-0.1-0.7,0.5-0.6,0.7
					c0.1,0.2,0.7,0.4,0.9,0.2C25.4,70.4,25.2,69.7,24.9,69.7z M29.1,73.5c-0.2-0.1-0.8-0.1-0.9,0.2c-0.1,0.3,0.4,0.8,0.7,0.7
					C29.2,74.3,29.2,73.6,29.1,73.5z M26.5,68.1c0.4,0.1,1.1-0.4,1-0.8c-0.1-0.4-1-0.6-1.2-0.3C26.1,67.2,26.1,68,26.5,68.1z
					 M30.9,70.4c-0.3,0.3-0.1,1.2,0.3,1.3c0.4,0.1,0.9-0.7,0.8-1C31.9,70.5,31.2,70.1,30.9,70.4z M29.3,71.3c-0.3,0-0.7,0.6-0.6,0.8
					c0.1,0.2,0.7,0.4,0.9,0.2C29.8,72,29.6,71.3,29.3,71.3z M30.9,67.7c-0.1-0.3-0.7-0.5-0.9-0.3c-0.2,0.2-0.2,0.8,0.1,0.9
					C30.4,68.4,31,68,30.9,67.7z M32.9,70.2c0-0.4-0.1-0.7-0.3-1c0-0.1,0-0.1,0-0.2c0-0.3-0.2-0.6-0.5-0.8c-0.1-0.4-0.4-0.8-0.8-1
					c-0.3-0.6-0.9-1-1.6-1c0,0-0.1,0-0.1,0c-0.3-0.3-0.6-0.5-1-0.5c-0.2,0-0.4,0.1-0.6,0.1c-0.2-0.1-0.4-0.1-0.7-0.1
					c-0.4,0-0.9,0.1-1.2,0.4c0,0-0.1,0-0.1,0c-0.7,0-1.3,0.5-1.4,1.2c-0.6,0.3-0.9,0.9-0.9,1.6c0,0.1,0,0.2,0,0.2
					c-0.3,0.3-0.4,0.6-0.4,1c0,0.2,0.1,0.5,0.2,0.7c-0.1,0.2-0.1,0.4-0.1,0.6c0,0.5,0.2,0.9,0.5,1.2c0,0,0,0,0,0.1
					c0,0.4,0.3,0.8,0.7,0.9c0.2,0.5,0.5,0.8,1,0.9c0.3,0.4,0.8,0.6,1.4,0.6c0,0,0.1,0,0.1,0c0.2,0.2,0.4,0.2,0.6,0.2
					c0.1,0,0.3,0,0.4-0.1c0.2,0.1,0.4,0.1,0.6,0.1c0.4,0,0.7-0.2,1-0.4c0.8,0,1.5-0.5,1.7-1.2c0.6-0.2,1-0.8,1.1-1.4
					c0.2-0.2,0.3-0.6,0.3-0.9c0-0.2,0-0.4-0.1-0.5C32.8,70.7,32.9,70.4,32.9,70.2z M32.4,70.8c0,0.1,0,0.1,0,0.2
					c0.1,0.1,0.1,0.3,0.1,0.5c0,0.3-0.1,0.5-0.3,0.7c0,0,0,0.1,0,0.1c0,0.5-0.4,1-0.9,1.2c0,0-0.1,0.1-0.1,0.1
					c-0.2,0.6-0.8,1.1-1.5,1.1c-0.1,0-0.1,0-0.1,0.1C29.3,74.9,29,75,28.7,75c-0.2,0-0.3,0-0.5-0.1c0,0-0.1,0-0.1,0c0,0-0.1,0-0.1,0
					C27.9,75,27.8,75,27.7,75c-0.2,0-0.3-0.1-0.4-0.2c0,0-0.1-0.1-0.2-0.1c-0.1,0-0.1,0-0.2,0c-0.4,0-0.9-0.2-1.1-0.6
					c0,0-0.1-0.1-0.1-0.1c-0.4-0.1-0.7-0.4-0.8-0.8c0-0.1-0.1-0.1-0.1-0.1c-0.3,0-0.5-0.3-0.5-0.6c0,0,0-0.1,0-0.1
					c0-0.1,0-0.1-0.1-0.2c-0.3-0.3-0.5-0.6-0.5-1c0-0.2,0-0.4,0.1-0.5c0-0.1,0-0.1,0-0.2c-0.1-0.2-0.2-0.4-0.2-0.6
					c0-0.3,0.1-0.6,0.4-0.8c0.1,0,0.1-0.1,0.1-0.2c0-0.1,0-0.2,0-0.3c0-0.5,0.3-1,0.8-1.3c0.1,0,0.1-0.1,0.1-0.1c0-0.5,0.5-1,1-1
					c0,0,0.1,0,0.1,0c0,0,0.1,0,0.1,0c0.3-0.2,0.7-0.4,1.1-0.4c0.2,0,0.4,0,0.6,0.1c0.1,0,0.1,0,0.2,0c0.2-0.1,0.3-0.1,0.5-0.1
					c0.3,0,0.6,0.1,0.8,0.4c0,0,0.1,0.1,0.2,0.1c0.6-0.1,1.2,0.3,1.4,0.8c0,0,0.1,0.1,0.1,0.1c0.4,0.1,0.6,0.5,0.7,0.8
					c0,0.1,0,0.1,0.1,0.1c0.2,0.1,0.3,0.3,0.3,0.5c0,0.1,0,0.1,0,0.2c0,0.1,0,0.1,0,0.2c0.2,0.2,0.3,0.5,0.3,0.8
					C32.5,70.4,32.5,70.6,32.4,70.8z M29.2,68.9c-0.3,0.1-0.3,0.8-0.1,0.9c0.2,0.1,0.8,0,0.8-0.3C30,69.2,29.4,68.8,29.2,68.9z"/>
			</g>
		</g>
	</g>
</g>
</svg>
